<svg xmlns="http://www.w3.org/2000/svg" xmlns:xlink="http://www.w3.org/1999/xlink" width="21.835" height="13.355" viewBox="0 0 21.835 13.355">
  <defs>
    <clipPath id="clip-path">
      <path id="Caminho_1089" data-name="Caminho 1089" d="M1460.186,63.222l.754-.924,1.909-4.341.085-1.289,2.262.468,1.106,1.441.292,2.335-.3,1.362-1.006.875-1.146-.827-.858.521.544.37.18.877-2.359.555-1.6-.9Z" fill="none"/>
    </clipPath>
  </defs>
  <g id="Grupo_450" data-name="Grupo 450" transform="translate(-1452.188 -53.781)">
    <path id="Caminho_1070" data-name="Caminho 1070" d="M1474.023,60.5h-21.835V54.805a1.024,1.024,0,0,1,1.024-1.024H1473a1.025,1.025,0,0,1,1.024,1.024Z" fill="#e1231a"/>
    <path id="Caminho_1071" data-name="Caminho 1071" d="M1473,67.136h-19.787a1.023,1.023,0,0,1-1.024-1.024V60.5h21.835v5.613A1.024,1.024,0,0,1,1473,67.136Z"/>
    <g id="Grupo_449" data-name="Grupo 449">
      <path id="Caminho_1072" data-name="Caminho 1072" d="M1465.495,63.471l-.333.383s-.082.051.1.092a1.011,1.011,0,0,1,.406.168,3.007,3.007,0,0,1,.428.529c.087.123.228.315.406.2s.014-.378,0-.419a2.9,2.9,0,0,0-.428-.493C1465.891,63.763,1465.495,63.471,1465.495,63.471Z" fill="#f8d516"/>
      <path id="Caminho_1073" data-name="Caminho 1073" d="M1465.663,63.748a.045.045,0,1,1-.045-.046A.046.046,0,0,1,1465.663,63.748Z"/>
      <path id="Caminho_1074" data-name="Caminho 1074" d="M1466.01,64.044a.046.046,0,0,1-.046.046.046.046,0,0,1,0-.091A.046.046,0,0,1,1466.01,64.044Z"/>
      <path id="Caminho_1075" data-name="Caminho 1075" d="M1466.32,64.354a.046.046,0,0,1-.046.046.046.046,0,0,1,0-.091A.046.046,0,0,1,1466.32,64.354Z"/>
      <path id="Caminho_1076" data-name="Caminho 1076" d="M1462.922,59.177l.687-.5h-.849l-.262-.807-.262.807h-.849l.687.5-.262.807.687-.5.687.5Z" fill="#f8d516"/>
      <path id="Caminho_1077" data-name="Caminho 1077" d="M1461.341,59.878s-.037.268.377.657,1.592,1.374,1.592,1.374l2.1,1.532-.316.353-2.785-1.7s-.912-.535-1.033-.814S1461.025,60.717,1461.341,59.878Z" fill="#f8d516"/>
      <g id="Grupo_445" data-name="Grupo 445">
        <path id="Caminho_1078" data-name="Caminho 1078" d="M1465.241,63.574c-.013-.009-1.275-.921-1.647-1.173s-1.487-1.135-1.5-1.144l.046-.058c.011.009,1.121.89,1.493,1.142s1.636,1.165,1.648,1.174Z"/>
      </g>
      <g id="Grupo_448" data-name="Grupo 448">
        <g id="Grupo_447" data-name="Grupo 447" clip-path="url(#clip-path)">
          <g id="Grupo_446" data-name="Grupo 446">
            <path id="Caminho_1079" data-name="Caminho 1079" d="M1462.544,56.945a3.4,3.4,0,1,0,3.4,3.4A3.4,3.4,0,0,0,1462.544,56.945Zm0,6.195a2.8,2.8,0,1,1,2.8-2.8A2.8,2.8,0,0,1,1462.544,63.14Z" fill="#f8d516"/>
            <path id="Caminho_1080" data-name="Caminho 1080" d="M1463.628,56.828l-.146.315.651.3.157-.339A3.643,3.643,0,0,0,1463.628,56.828Z" fill="#f8d516"/>
            <path id="Caminho_1081" data-name="Caminho 1081" d="M1464.9,57.515l-.256.236.486.528.275-.252A3.7,3.7,0,0,0,1464.9,57.515Z" fill="#f8d516"/>
            <path id="Caminho_1082" data-name="Caminho 1082" d="M1465.8,58.638l-.327.119.245.675.351-.128A3.626,3.626,0,0,0,1465.8,58.638Z" fill="#f8d516"/>
            <path id="Caminho_1083" data-name="Caminho 1083" d="M1466.21,60.024l-.348-.016-.034.717.374.017A3.662,3.662,0,0,0,1466.21,60.024Z" fill="#f8d516"/>
            <path id="Caminho_1084" data-name="Caminho 1084" d="M1466.05,61.459l-.314-.149-.307.649.337.16A3.619,3.619,0,0,0,1466.05,61.459Z" fill="#f8d516"/>
            <path id="Caminho_1085" data-name="Caminho 1085" d="M1465.351,62.722l-.233-.258-.533.481.25.277A3.686,3.686,0,0,0,1465.351,62.722Z" fill="#f8d516"/>
            <path id="Caminho_1086" data-name="Caminho 1086" d="M1464.219,63.619l-.115-.328-.677.239.124.352A3.662,3.662,0,0,0,1464.219,63.619Z" fill="#f8d516"/>
            <path id="Caminho_1087" data-name="Caminho 1087" d="M1462.83,64.012l.019-.348-.716-.04-.021.373A3.737,3.737,0,0,0,1462.83,64.012Z" fill="#f8d516"/>
            <path id="Caminho_1088" data-name="Caminho 1088" d="M1461.4,63.839l.151-.313-.646-.313-.163.336A3.724,3.724,0,0,0,1461.4,63.839Z" fill="#f8d516"/>
          </g>
        </g>
      </g>
    </g>
  </g>
</svg>
