<svg xmlns="http://www.w3.org/2000/svg" xmlns:xlink="http://www.w3.org/1999/xlink" width="254.67" height="254.898" viewBox="0 0 254.67 254.898">
  <defs>
    <radialGradient id="radial-gradient" cx="0.5" cy="0.5" r="0.5" gradientTransform="translate(0)" gradientUnits="objectBoundingBox">
      <stop offset="0" stop-color="#fffacb"/>
      <stop offset="0.116" stop-color="#faf0b9"/>
      <stop offset="0.346" stop-color="#eed88d"/>
      <stop offset="0.371" stop-color="#edd688"/>
      <stop offset="0.685" stop-color="#eaba10"/>
      <stop offset="1" stop-color="#c2912e"/>
    </radialGradient>
    <radialGradient id="radial-gradient-2" cx="0.5" cy="0.5" r="0.5" xlink:href="#radial-gradient"/>
    <radialGradient id="radial-gradient-5" cx="0.5" cy="0.5" r="0.5" gradientTransform="matrix(1, 0, 0, 1, 0, 0)" xlink:href="#radial-gradient"/>
    <radialGradient id="radial-gradient-6" cx="0.5" cy="0.5" r="0.5" xlink:href="#radial-gradient"/>
    <radialGradient id="radial-gradient-8" cx="0.5" cy="0.5" r="0.5" xlink:href="#radial-gradient"/>
    <radialGradient id="radial-gradient-9" cx="0.5" cy="0.5" r="0.5" xlink:href="#radial-gradient"/>
    <radialGradient id="radial-gradient-11" cx="0.5" cy="0.5" r="0.5" xlink:href="#radial-gradient"/>
    <radialGradient id="radial-gradient-14" cx="0.5" cy="0.5" r="0.5" xlink:href="#radial-gradient"/>
    <radialGradient id="radial-gradient-15" cx="0.5" cy="0.5" r="0.5" xlink:href="#radial-gradient"/>
  </defs>
  <g id="Grupo_478" data-name="Grupo 478" transform="translate(-832.665 -1137.102)">
    <g id="Grupo_463" data-name="Grupo 463">
      <path id="Caminho_1104" data-name="Caminho 1104" d="M915.648,1239.865l12.768,12.768-28.308,28.308-48.152,48.141-12.768-12.767,48.152-48.141,19.29-19.29,9.018-9.019m0-6.522-12.28,12.28-19.29,19.29-51.413,51.4,19.29,19.29,51.413-51.4,31.57-31.57-19.29-19.29Z" fill="url(#radial-gradient)"/>
    </g>
    <g id="Grupo_464" data-name="Grupo 464">
      <path id="Caminho_1105" data-name="Caminho 1105" d="M1011.76,1143.625l12.767,12.768-48.417,48.428-19.29,19.29-9.019,9.018-12.767-12.767,9.018-9.019,19.291-19.29,48.417-48.428m0-6.523-51.678,51.69-19.29,19.29-12.28,12.28,19.29,19.29,12.28-12.28,19.29-19.29,51.678-51.69-19.29-19.29Z" fill="url(#radial-gradient-2)"/>
    </g>
    <g id="Grupo_465" data-name="Grupo 465">
      <path id="Caminho_1106" data-name="Caminho 1106" d="M972.044,1296.261l12.767,12.768-9.018,9.018-19.29,19.29-48.152,48.141-12.767-12.768,48.151-48.14,19.29-19.29,9.019-9.019m0-6.522-12.28,12.279-19.29,19.29-51.413,51.4,19.29,19.29,51.413-51.4,19.29-19.29,12.28-12.279-19.29-19.29Z" fill="url(#radial-gradient)"/>
    </g>
    <g id="Grupo_466" data-name="Grupo 466">
      <path id="Caminho_1107" data-name="Caminho 1107" d="M1068.045,1200.219l12.768,12.767-48.418,48.429-28.308,28.308-12.768-12.767,9.019-9.019,19.29-19.29,48.417-48.428m0-6.523-51.679,51.69-19.29,19.29-12.279,12.28,19.29,19.29,31.569-31.57,51.679-51.69-19.29-19.29Z" fill="url(#radial-gradient-2)"/>
    </g>
    <g id="Grupo_467" data-name="Grupo 467">
      <path id="Caminho_1108" data-name="Caminho 1108" d="M972.128,1239.732,984.9,1252.5l-9.018,9.018-19.29,19.29-9.018,9.019L934.8,1277.059l9.018-9.018,19.29-19.29,9.019-9.019m0-6.522-12.28,12.28-19.29,19.29-12.279,12.279,19.29,19.29,12.279-12.279,19.29-19.29,12.28-12.28-19.29-19.29Z" fill="url(#radial-gradient-5)"/>
    </g>
    <g id="Grupo_468" data-name="Grupo 468">
      <path id="Caminho_1109" data-name="Caminho 1109" d="M915.523,1296.337,928.29,1309.1l-32.7,32.693-12.768-12.768,32.7-32.692m0-6.522L876.3,1329.029l19.29,19.29,39.226-39.214-19.29-19.29Z" fill="url(#radial-gradient-6)"/>
    </g>
    <g id="Grupo_469" data-name="Grupo 469">
      <path id="Caminho_1110" data-name="Caminho 1110" d="M1024.351,1187.5l12.777,12.769-32.979,32.979-12.768-12.768,32.97-32.98m0-6.522-39.491,39.5,19.29,19.29,39.5-39.5-19.3-19.29Z" fill="url(#radial-gradient-5)"/>
    </g>
    <g id="Grupo_470" data-name="Grupo 470">
      <path id="Caminho_1111" data-name="Caminho 1111" d="M854.858,1203.635l45.225,45.225-12.767,12.768L842.091,1216.4l12.767-12.768m0-6.522-19.29,19.29,51.748,51.747,19.29-19.29-51.748-51.747Z" fill="url(#radial-gradient-8)"/>
    </g>
    <g id="Grupo_471" data-name="Grupo 471">
      <path id="Caminho_1112" data-name="Caminho 1112" d="M919.354,1268.131l37.143,37.142-12.768,12.768-8.926-8.926-19.29-19.29-8.926-8.926,12.767-12.768m0-6.522-19.29,19.29,12.188,12.187,19.29,19.29,12.187,12.187,19.29-19.29-43.665-43.664Z" fill="url(#radial-gradient-9)"/>
    </g>
    <g id="Grupo_472" data-name="Grupo 472">
      <path id="Caminho_1113" data-name="Caminho 1113" d="M975.821,1324.6l45.006,45.006-12.768,12.768-45.006-45.006,12.768-12.768m0-6.522-19.29,19.29,51.528,51.528,19.29-19.29-51.528-51.528Z" fill="url(#radial-gradient-5)"/>
    </g>
    <g id="Grupo_473" data-name="Grupo 473">
      <path id="Caminho_1114" data-name="Caminho 1114" d="M975.975,1211.51l37.143,37.142-12.768,12.768-37.142-37.142,12.767-12.768m0-6.522-19.29,19.29,43.665,43.664,19.29-19.29-43.665-43.664Z" fill="url(#radial-gradient-11)"/>
    </g>
    <g id="Grupo_474" data-name="Grupo 474">
      <path id="Caminho_1115" data-name="Caminho 1115" d="M914.6,1143.791l45.225,45.225-12.767,12.768-45.225-45.225,12.767-12.768m0-6.522-19.29,19.29,51.748,51.747,19.29-19.29L914.6,1137.269Z" fill="url(#radial-gradient-8)"/>
    </g>
    <g id="Grupo_475" data-name="Grupo 475">
      <path id="Caminho_1116" data-name="Caminho 1116" d="M1032.32,1268l45.006,45.006-12.767,12.767-45.006-45.006L1032.32,1268m0-6.523-19.29,19.29,51.529,51.529,19.29-19.29-51.529-51.529Z" fill="url(#radial-gradient-5)"/>
    </g>
    <g id="Grupo_476" data-name="Grupo 476">
      <path id="Caminho_1117" data-name="Caminho 1117" d="M891.626,1183.692l36.8,36.794,28.216,28.217-12.768,12.767-8.926-8.926-19.29-19.29-36.794-36.8,12.767-12.767m0-6.523-19.29,19.29,40.056,40.056,19.29,19.29,12.187,12.188,19.291-19.29-31.478-31.478-40.056-40.056Z" fill="url(#radial-gradient-14)"/>
    </g>
    <g id="Grupo_477" data-name="Grupo 477">
      <path id="Caminho_1118" data-name="Caminho 1118" d="M975.877,1268.041l8.926,8.926,19.29,19.29,36.576,36.576L1027.9,1345.6l-64.792-64.792,12.768-12.767m0-6.523-19.29,19.29,71.314,71.315,19.29-19.29L1007.354,1293l-19.29-19.29-12.187-12.188Z" fill="url(#radial-gradient-15)"/>
    </g>
  </g>
</svg>
