<svg xmlns="http://www.w3.org/2000/svg" xmlns:xlink="http://www.w3.org/1999/xlink" width="192.553" height="35.13" viewBox="0 0 192.553 35.13">
  <defs>
    <radialGradient id="radial-gradient" cx="0.5" cy="0.5" r="0.5" gradientTransform="translate(0)" gradientUnits="objectBoundingBox">
      <stop offset="0" stop-color="#fff9ca"/>
      <stop offset="0.116" stop-color="#faefb8"/>
      <stop offset="0.346" stop-color="#edd78c"/>
      <stop offset="0.371" stop-color="#ecd587"/>
      <stop offset="0.685" stop-color="#e9b910"/>
      <stop offset="1" stop-color="#c1902e"/>
    </radialGradient>
    <radialGradient id="radial-gradient-2" cx="0.5" cy="0.5" r="0.5" xlink:href="#radial-gradient"/>
    <radialGradient id="radial-gradient-3" cx="0.5" cy="0.5" r="0.5" xlink:href="#radial-gradient"/>
    <radialGradient id="radial-gradient-5" cx="0.5" cy="0.5" r="0.5" xlink:href="#radial-gradient"/>
    <radialGradient id="radial-gradient-6" cx="0.5" cy="0.5" r="0.5" xlink:href="#radial-gradient"/>
    <radialGradient id="radial-gradient-7" cx="0.5" cy="0.5" r="0.5" xlink:href="#radial-gradient"/>
    <radialGradient id="radial-gradient-8" cx="0.5" cy="0.5" r="0.5" xlink:href="#radial-gradient"/>
    <radialGradient id="radial-gradient-9" cx="0.5" cy="0.5" r="0.5" xlink:href="#radial-gradient"/>
    <radialGradient id="radial-gradient-10" cx="0.5" cy="0.5" r="0.5" xlink:href="#radial-gradient"/>
    <radialGradient id="radial-gradient-11" cx="0.5" cy="0.5" r="0.5" xlink:href="#radial-gradient"/>
    <radialGradient id="radial-gradient-12" cx="0.5" cy="0.5" r="0.5" xlink:href="#radial-gradient"/>
    <radialGradient id="radial-gradient-13" cx="0.5" cy="0.5" r="0.5" xlink:href="#radial-gradient"/>
    <radialGradient id="radial-gradient-14" cx="0.5" cy="0.5" r="0.5" xlink:href="#radial-gradient"/>
    <radialGradient id="radial-gradient-15" cx="0.5" cy="0.5" r="0.5" gradientTransform="matrix(1, 0, 0, 1, 0, 0)" xlink:href="#radial-gradient"/>
  </defs>
  <g id="Grupo_444" data-name="Grupo 444" transform="translate(-289.447 -41.935)">
    <path id="Caminho_1049" data-name="Caminho 1049" d="M355.749,49.518h-6.1V74.139H344.83V49.518h-6.1V45.075h17.023Z" fill="#132a34"/>
    <path id="Caminho_1050" data-name="Caminho 1050" d="M366.709,49.933v3.523h12.082v4.816H366.709V69.281H381.24v4.858H361.851V45.075H381.24v4.858Z" fill="#132a34"/>
    <path id="Caminho_1051" data-name="Caminho 1051" d="M396.144,59.607l-10.38-14.532H391.7l7.432,10.38,7.391-10.38h5.937l-10.38,14.532,10.38,14.532h-5.937l-7.391-10.38L391.7,74.139h-5.937Z" fill="#132a34"/>
    <path id="Caminho_1052" data-name="Caminho 1052" d="M432.969,49.518h-6.1V74.139H422.05V49.518h-6.1V45.075h17.023Z" fill="#132a34"/>
    <path id="Caminho_1053" data-name="Caminho 1053" d="M446.307,45.076l-.353.246,11.3,28.817h-5.232l-1.287-2.532s-.859,2.532-5.107,2.532-5.106-2.532-5.106-2.532l-1.246,2.532h-5.231l11.261-28.817-.354-.246ZM442.1,67.414a3.726,3.726,0,0,0,7.058,0l-3.529-10.921Z" fill="#132a34"/>
    <path id="Caminho_1054" data-name="Caminho 1054" d="M467.468,49.933V53.04H479.55v4.817H467.468V74.139h-4.857V45.075H482v4.858Z" fill="#132a34"/>
    <g id="Grupo_443" data-name="Grupo 443">
      <g id="Grupo_428" data-name="Grupo 428">
        <path id="Caminho_1055" data-name="Caminho 1055" d="M300.884,56.1l1.759,1.759-3.9,3.9-6.636,6.635-1.76-1.76L296.982,60l2.659-2.658,1.243-1.243m0-.9-1.693,1.692-2.658,2.659-7.086,7.084,2.658,2.659,7.086-7.085,4.351-4.351L300.884,55.2Z" fill="url(#radial-gradient)"/>
      </g>
      <g id="Grupo_429" data-name="Grupo 429">
        <path id="Caminho_1056" data-name="Caminho 1056" d="M314.13,42.834l1.759,1.76-6.673,6.674-2.658,2.659-1.243,1.242-1.76-1.759,1.243-1.243,2.659-2.659,6.673-6.674m0-.9-7.123,7.124-2.658,2.658-1.693,1.693,2.659,2.658,1.692-1.692,2.659-2.659,7.122-7.123-2.658-2.659Z" fill="url(#radial-gradient-2)"/>
      </g>
      <g id="Grupo_430" data-name="Grupo 430">
        <path id="Caminho_1057" data-name="Caminho 1057" d="M308.656,63.87l1.76,1.76-1.243,1.243-2.659,2.658-6.636,6.635-1.76-1.759,6.637-6.635,2.658-2.659,1.243-1.243m0-.9-1.692,1.693L304.3,67.322l-7.086,7.084,2.659,2.659,7.086-7.084,2.658-2.659,1.693-1.692-2.659-2.659Z" fill="url(#radial-gradient-3)"/>
      </g>
      <g id="Grupo_431" data-name="Grupo 431">
        <path id="Caminho_1058" data-name="Caminho 1058" d="M321.887,50.634l1.76,1.759-6.673,6.675-3.9,3.9-1.759-1.759,1.243-1.243,2.658-2.659,6.673-6.674m0-.9-7.122,7.124-2.659,2.658-1.692,1.693,2.658,2.658,4.351-4.351,7.123-7.124-2.659-2.658Z" fill="url(#radial-gradient-2)"/>
      </g>
      <g id="Grupo_432" data-name="Grupo 432">
        <path id="Caminho_1059" data-name="Caminho 1059" d="M308.668,56.079l1.759,1.76-1.243,1.243-2.658,2.659-1.243,1.243-1.76-1.76,1.243-1.243,2.659-2.659,1.243-1.243m0-.9-1.693,1.692-2.658,2.658-1.693,1.693,2.659,2.658,1.692-1.692,2.659-2.659,1.692-1.692-2.658-2.658Z" fill="url(#radial-gradient-5)"/>
      </g>
      <g id="Grupo_433" data-name="Grupo 433">
        <path id="Caminho_1060" data-name="Caminho 1060" d="M300.866,63.881l1.76,1.759-4.507,4.506-1.76-1.76,4.507-4.505m0-.9-5.406,5.4,2.659,2.659,5.406-5.4-2.659-2.658Z" fill="url(#radial-gradient-6)"/>
      </g>
      <g id="Grupo_434" data-name="Grupo 434">
        <path id="Caminho_1061" data-name="Caminho 1061" d="M315.865,48.881l1.761,1.759-4.545,4.546-1.76-1.76,4.544-4.545m0-.9-5.443,5.444,2.659,2.659,5.444-5.445-2.66-2.658Z" fill="url(#radial-gradient-7)"/>
      </g>
      <g id="Grupo_435" data-name="Grupo 435">
        <path id="Caminho_1062" data-name="Caminho 1062" d="M292.506,51.1l6.233,6.232-1.76,1.76-6.233-6.233,1.76-1.759m0-.9-2.659,2.658L296.979,60l2.658-2.659-7.131-7.131Z" fill="url(#radial-gradient-8)"/>
      </g>
      <g id="Grupo_436" data-name="Grupo 436">
        <path id="Caminho_1063" data-name="Caminho 1063" d="M301.394,59.993l5.119,5.119-1.759,1.76-1.23-1.23-2.659-2.659-1.23-1.23,1.759-1.76m0-.9-2.658,2.659,1.68,1.68,2.658,2.658,1.68,1.68,2.658-2.659-6.018-6.018Z" fill="url(#radial-gradient-9)"/>
      </g>
      <g id="Grupo_437" data-name="Grupo 437">
        <path id="Caminho_1064" data-name="Caminho 1064" d="M309.177,67.776l6.2,6.2-1.759,1.76-6.2-6.2,1.76-1.759m0-.9-2.659,2.658,7.1,7.1,2.658-2.659-7.1-7.1Z" fill="url(#radial-gradient-10)"/>
      </g>
      <g id="Grupo_438" data-name="Grupo 438">
        <path id="Caminho_1065" data-name="Caminho 1065" d="M309.2,52.19l5.119,5.119-1.76,1.759-5.119-5.119,1.76-1.759m0-.9-2.659,2.658,6.018,6.018,2.659-2.658L309.2,51.291Z" fill="url(#radial-gradient-11)"/>
      </g>
      <g id="Grupo_439" data-name="Grupo 439">
        <path id="Caminho_1066" data-name="Caminho 1066" d="M300.74,42.857l6.233,6.233-1.76,1.759-6.233-6.233,1.76-1.759m0-.9-2.659,2.658,7.132,7.132,2.659-2.658-7.132-7.132Z" fill="url(#radial-gradient-12)"/>
      </g>
      <g id="Grupo_440" data-name="Grupo 440">
        <path id="Caminho_1067" data-name="Caminho 1067" d="M316.963,59.976l6.2,6.2-1.759,1.76-6.2-6.2,1.759-1.759m0-.9L314.3,61.735l7.1,7.1,2.658-2.659-7.1-7.1Z" fill="url(#radial-gradient-13)"/>
      </g>
      <g id="Grupo_441" data-name="Grupo 441">
        <path id="Caminho_1068" data-name="Caminho 1068" d="M297.573,48.356l5.071,5.071,3.889,3.889-1.76,1.759-1.23-1.23-2.659-2.658-5.071-5.071,1.76-1.76m0-.9-2.659,2.659,5.521,5.52,2.658,2.659,1.68,1.679,2.659-2.658-4.339-4.338-5.52-5.521Z" fill="url(#radial-gradient-14)"/>
      </g>
      <g id="Grupo_442" data-name="Grupo 442">
        <path id="Caminho_1069" data-name="Caminho 1069" d="M309.184,59.981l1.231,1.23,2.658,2.659,5.041,5.041-1.76,1.759-8.929-8.929,1.759-1.76m0-.9-2.658,2.659,9.828,9.828,2.659-2.658-5.49-5.491-2.659-2.658-1.68-1.68Z" fill="url(#radial-gradient-15)"/>
      </g>
    </g>
    <line id="Linha_17" data-name="Linha 17" y2="35.13" transform="translate(331.636 41.935)" fill="#231f20" stroke="#707070" stroke-miterlimit="10" stroke-width="1"/>
  </g>
</svg>
